HIERARCHY
ROOT Hips
{
	OFFSET 0.000000 0.000000 0.000000
	CHANNELS 6 Xposition Yposition Zposition Xrotation Yrotation Zrotation
	JOINT LeftUpLeg_virtual
	{
		OFFSET 0.000000 0.000000 0.000000
		CHANNELS 3 Xrotation Yrotation Zrotation
		JOINT LeftUpLeg
		{
			OFFSET 10.205400 -3.823500 0.155100
			CHANNELS 3 Xrotation Yrotation Zrotation
			JOINT LeftLeg
			{
				OFFSET 0.708757 -12.982077 0.567790
				CHANNELS 3 Xrotation Yrotation Zrotation
				JOINT LeftFoot
				{
					OFFSET -0.708756 -10.717838 -2.184338
					CHANNELS 3 Xrotation Yrotation Zrotation
					JOINT LeftToeBase
					{
						OFFSET 0.108149 -7.191104 7.560241
						CHANNELS 3 Xrotation Yrotation Zrotation
						JOINT LeftToe_End
						{
							OFFSET 0.070230 0.081724 4.490308
							CHANNELS 3 Xrotation Yrotation Zrotation
							End Site
							{
								OFFSET 0 0 0
							}
						}
					}
				}
			}
		}
	}
	JOINT RightUpLeg_virtual
	{
		OFFSET 0.000000 0.000000 0.000000
		CHANNELS 3 Xrotation Yrotation Zrotation
		JOINT RightUpLeg
		{
			OFFSET -10.205400 -3.823500 0.005500
			CHANNELS 3 Xrotation Yrotation Zrotation
			JOINT RightLeg
			{
				OFFSET -0.708756 -12.982134 0.610632
				CHANNELS 3 Xrotation Yrotation Zrotation
				JOINT RightFoot
				{
					OFFSET 0.708754 -10.717769 -1.945823
					CHANNELS 3 Xrotation Yrotation Zrotation
					JOINT RightToeBase
					{
						OFFSET -0.108140 -7.191069 7.372968
						CHANNELS 3 Xrotation Yrotation Zrotation
						JOINT RightToe_End
						{
							OFFSET -0.070227 0.081735 4.479403
							CHANNELS 3 Xrotation Yrotation Zrotation
							End Site
							{
								OFFSET 0 0 0
							}
						}
					}
				}
			}
		}
	}
	JOINT Spine_virtual
	{
		OFFSET 0.000000 0.000000 0.000000
		CHANNELS 3 Xrotation Yrotation Zrotation
		JOINT Spine
		{
			OFFSET 0.000000 6.876099 0.125700
			CHANNELS 3 Xrotation Yrotation Zrotation
			JOINT Spine1
			{
				OFFSET 0.000000 5.730043 0.104720
				CHANNELS 3 Xrotation Yrotation Zrotation
				JOINT Spine1_split
				{
					OFFSET 0.000000 5.730043 0.104720
					CHANNELS 3 Xrotation Yrotation Zrotation
					JOINT Spine2
					{
						OFFSET 0.000000 5.730043 0.104720
						CHANNELS 3 Xrotation Yrotation Zrotation
						JOINT Neck_virtual
						{
							OFFSET 0.000000 0.000000 0.000000
							CHANNELS 3 Xrotation Yrotation Zrotation
							JOINT Neck
							{
								OFFSET 0.000000 10.314075 0.188496
								CHANNELS 3 Xrotation Yrotation Zrotation
								JOINT Head
								{
									OFFSET 0.000000 7.643700 -2.377400
									CHANNELS 3 Xrotation Yrotation Zrotation
									JOINT HeadTop_End
									{
										OFFSET 0.000000 43.788605 -13.619600
										CHANNELS 3 Xrotation Yrotation Zrotation
										End Site
										{
											OFFSET 0 0 0
										}
									}
								}
							}
						}
						JOINT LeftShoulder_virtual
						{
							OFFSET 0.000000 0.000000 0.000000
							CHANNELS 3 Xrotation Yrotation Zrotation
							JOINT LeftShoulder
							{
								OFFSET 2.196100 4.412489 0.087492
								CHANNELS 3 Xrotation Yrotation Zrotation
								JOINT LeftShoulder_split
								{
									OFFSET 2.196100 4.412489 0.087492
									CHANNELS 3 Xrotation Yrotation Zrotation
									JOINT LeftArm
									{
										OFFSET 8.771219 -2.981674 -0.026999
										CHANNELS 3 Xrotation Yrotation Zrotation
										JOINT LeftForeArm
										{
											OFFSET 8.512804 0.000000 -0.000000
											CHANNELS 3 Xrotation Yrotation Zrotation
											JOINT LeftHand
											{
												OFFSET 18.484802 0.000000 -0.000000
												CHANNELS 3 Xrotation Yrotation Zrotation
												End Site
												{
													OFFSET 0 0 0
												}
											}
										}
									}
								}
							}
						}
						JOINT RightShoulder_virtual
						{
							OFFSET 0.000000 0.000000 0.000000
							CHANNELS 3 Xrotation Yrotation Zrotation
							JOINT RightShoulder
							{
								OFFSET -2.196100 4.412496 0.070690
								CHANNELS 3 Xrotation Yrotation Zrotation
								JOINT RightShoulder_split
								{
									OFFSET -2.196100 4.412496 0.070690
									CHANNELS 3 Xrotation Yrotation Zrotation
									JOINT RightArm
									{
										OFFSET -8.771282 -2.981682 -0.094208
										CHANNELS 3 Xrotation Yrotation Zrotation
										JOINT RightForeArm
										{
											OFFSET -8.494598 0.000000 0.000000
											CHANNELS 3 Xrotation Yrotation Zrotation
											JOINT RightHand
											{
												OFFSET -18.483803 0.000000 0.000001
												CHANNELS 3 Xrotation Yrotation Zrotation
												End Site
												{
													OFFSET 0 0 0
												}
											}
										}
									}
								}
							}
						}
					}
				}
			}
		}
	}
}
MOTION
Frames: 9
Frame Time: 0.03333333
0.274509 32.423138 0.191923 0.000000 0.000000 0.000000 -1.718082 -25.898305 0.482744 -24.544949 24.334793 13.324264 28.288992 7.150634 11.891350 -8.041365 2.700472 -17.980099 1.515312 0.218832 -2.022390 0.000000 0.000000 0.000000 -2.288176 -24.855005 0.586263 -9.921552 -18.937743 -7.240408 24.399949 0.276381 -10.819052 -19.313731 -3.454673 13.889946 -1.033526 -0.721261 -0.967421 0.000000 0.000000 0.000000 -1.043229 -26.859564 0.413501 4.373272 -1.938930 0.425068 0.703147 -0.664538 0.142691 1.053560 -0.452631 0.294968 0.000000 0.000000 0.000000 0.799746 -0.759834 0.213381 -2.338800 1.476414 3.347147 17.574476 23.909965 -12.565339 0.000000 0.000000 0.000000 1.351941 -0.722203 0.182279 -0.652625 2.410283 4.370142 -1.505923 -0.007030 -0.290922 -53.327020 -2.137023 -49.402427 -13.278654 -87.525828 -12.874881 0.000000 0.000000 0.000000 2.170150 -0.398174 0.047979 -1.104928 -11.020509 10.935958 0.831910 1.798180 0.107283 -63.832503 64.701685 79.383553 -20.162044 87.268849 20.158274 0.000000 0.000000 0.000000 
0.276686 32.415501 0.193630 0.000000 0.000000 0.000000 -1.693020 -25.887380 0.537529 -24.534395 24.351344 13.289483 28.293678 7.122313 11.890868 -8.063477 2.648941 -17.997815 1.522653 0.220356 -2.032732 0.000000 0.000000 0.000000 -2.271462 -24.808552 0.635289 -10.032902 -19.133860 -7.213664 24.521368 0.401012 -10.976760 -19.332519 -3.468855 13.835113 -1.024234 -0.727435 -0.965229 0.000000 0.000000 0.000000 -1.023953 -26.870360 0.456481 4.356221 -1.974761 0.437198 0.683947 -0.674927 0.140150 1.055234 -0.449810 0.284170 0.000000 0.000000 0.000000 0.796019 -0.769847 0.208568 -2.323878 1.493906 3.348457 17.592518 23.943553 -12.581687 0.000000 0.000000 0.000000 1.339439 -0.732988 0.183719 -0.656050 2.429888 4.281925 -1.518409 -0.022998 -0.286457 -53.311327 -2.199726 -49.339248 -12.785255 -87.404524 -12.376749 0.000000 0.000000 0.000000 2.154281 -0.414344 0.044672 -1.092830 -11.029350 10.921251 0.837317 1.809946 0.096839 -63.852618 64.735481 79.344853 -20.128530 87.273507 20.133427 0.000000 0.000000 0.000000 
0.281749 32.405449 0.191614 0.000000 0.000000 0.000000 -1.661289 -25.891009 0.594642 -24.549365 24.381067 13.274024 28.304557 7.076081 11.887643 -8.093251 2.581771 -18.014909 1.519971 0.219386 -2.039223 0.000000 0.000000 0.000000 -2.244182 -24.776788 0.690207 -10.167818 -19.358752 -7.195354 24.630046 0.541259 -11.136025 -19.352357 -3.468516 13.780191 -0.999470 -0.733386 -0.962530 0.000000 0.000000 0.000000 -0.990559 -26.886075 0.507795 4.338160 -2.012812 0.451238 0.661130 -0.686553 0.138748 1.054572 -0.439879 0.275181 0.000000 0.000000 0.000000 0.794176 -0.781956 0.203648 -2.309404 1.504383 3.356968 17.605673 23.966444 -12.591169 0.000000 0.000000 0.000000 1.325672 -0.746417 0.184928 -0.654217 2.435575 4.189412 -1.527004 -0.039024 -0.273680 -53.313339 -2.263986 -49.262541 -12.276014 -87.298970 -11.866217 0.000000 0.000000 0.000000 2.138954 -0.431786 0.041625 -1.081486 -11.026050 10.894157 0.835852 1.835173 0.086321 -63.851586 64.746088 79.297663 -20.152765 87.280911 20.164202 0.000000 0.000000 0.000000 
0.288729 32.395134 0.187323 0.000000 0.000000 0.000000 -1.624019 -25.910010 0.650727 -24.574543 24.421384 13.274313 28.309811 7.025185 11.879078 -8.131217 2.517425 -18.027617 1.515776 0.216288 -2.042173 0.000000 0.000000 0.000000 -2.206879 -24.769198 0.747730 -10.320736 -19.583484 -7.194367 24.714073 0.702324 -11.283694 -19.342628 -3.447794 13.765256 -1.007257 -0.738314 -0.969569 0.000000 0.000000 0.000000 -0.949193 -26.909928 0.564189 4.316104 -2.052227 0.469050 0.636434 -0.698883 0.139515 1.052723 -0.422833 0.265220 0.000000 0.000000 0.000000 0.793784 -0.795812 0.200771 -2.291985 1.508893 3.365586 17.617978 23.979249 -12.600367 0.000000 0.000000 0.000000 1.312096 -0.761902 0.187153 -0.647439 2.430216 4.095832 -1.533124 -0.060747 -0.253382 -53.346701 -2.325628 -49.175330 -11.683382 -87.200048 -11.274485 0.000000 0.000000 0.000000 2.126107 -0.449335 0.040152 -1.072324 -11.005758 10.842179 0.834927 1.868135 0.074518 -63.861476 64.740542 79.273737 -20.137469 87.276096 20.150055 0.000000 0.000000 0.000000 
0.294478 32.387421 0.182526 0.000000 0.000000 0.000000 -1.586883 -25.951647 0.700780 -24.588396 24.463465 13.284499 28.293799 6.987359 11.868384 -8.174585 2.475448 -18.035328 1.514145 0.212074 -2.040923 0.000000 0.000000 0.000000 -2.165395 -24.790976 0.803005 -10.475552 -19.779164 -7.203631 24.762987 0.873272 -11.407097 -19.301905 -3.411891 13.800436 -1.056212 -0.742728 -0.987393 0.000000 0.000000 0.000000 -0.905176 -26.942991 0.620240 4.289335 -2.092043 0.493233 0.611313 -0.711596 0.144177 1.045347 -0.400193 0.255897 0.000000 0.000000 0.000000 0.794420 -0.811284 0.201419 -2.266653 1.512266 3.366240 17.635755 23.983673 -12.617507 0.000000 0.000000 0.000000 1.300347 -0.778907 0.192115 -0.637429 2.417630 4.006239 -1.531250 -0.071053 -0.224400 -53.412742 -2.379624 -49.081415 -11.039689 -87.097882 -10.629667 0.000000 0.000000 0.000000 2.117377 -0.466665 0.041690 -1.066936 -10.964447 10.749407 0.836535 1.897647 0.072077 -63.923242 64.730864 79.315032 -19.981239 87.247498 19.989621 0.000000 0.000000 0.000000 
0.297631 32.383572 0.175373 0.000000 0.000000 0.000000 -1.550615 -26.006577 0.742810 -24.575004 24.501994 13.297791 28.251138 6.973090 11.856941 -8.217788 2.467395 -18.037958 1.512113 0.207675 -2.035454 0.000000 0.000000 0.000000 -2.123106 -24.841570 0.851016 -10.605400 -19.921328 -7.216471 24.779161 1.035766 -11.498985 -19.262038 -3.369796 13.852629 -1.111221 -0.746597 -1.009468 0.000000 0.000000 0.000000 -0.860784 -26.985915 0.673095 4.255622 -2.130611 0.525564 0.588227 -0.725002 0.153600 1.039056 -0.375387 0.251563 0.000000 0.000000 0.000000 0.794677 -0.828858 0.207249 -2.230763 1.517749 3.352738 17.660035 23.984687 -12.648266 0.000000 0.000000 0.000000 1.290503 -0.797401 0.201391 -0.625628 2.403211 3.919825 -1.527209 -0.069491 -0.187557 -53.510933 -2.425277 -48.989464 -10.331793 -86.981694 -9.917856 0.000000 0.000000 0.000000 2.112890 -0.484054 0.047066 -1.065422 -10.902001 10.610368 0.841538 1.919218 0.080561 -64.050529 64.721083 79.437019 -19.654605 87.187214 19.653179 0.000000 0.000000 0.000000 
0.297970 32.383976 0.167034 0.000000 0.000000 0.000000 -1.518663 -26.064796 0.775070 -24.532883 24.528358 13.311314 28.185370 6.987263 11.845952 -8.247984 2.494399 -18.046541 1.507634 0.204299 -2.026614 0.000000 0.000000 0.000000 -2.085896 -24.916023 0.888713 -10.692906 -20.000551 -7.226126 24.777785 1.156372 -11.550754 -19.252027 -3.337288 13.868808 -1.120394 -0.748905 -1.023624 0.000000 0.000000 0.000000 -0.815072 -27.034042 0.722577 4.215400 -2.166127 0.567033 0.567886 -0.739795 0.168256 1.036989 -0.356487 0.246221 0.000000 0.000000 0.000000 0.791887 -0.848718 0.219095 -2.181559 1.530484 3.320639 17.693707 23.987223 -12.695846 0.000000 0.000000 0.000000 1.281274 -0.817168 0.215510 -0.613703 2.391302 3.835782 -1.518381 -0.049588 -0.150451 -53.622336 -2.459772 -48.903956 -9.649299 -86.845951 -9.226432 0.000000 0.000000 0.000000 2.110488 -0.501909 0.057493 -1.067262 -10.822273 10.428728 0.845259 1.936714 0.096654 -64.254950 64.714950 79.648899 -19.112842 87.087043 19.096736 0.000000 0.000000 0.000000 
0.295300 32.387760 0.158623 0.000000 0.000000 0.000000 -1.492978 -26.124891 0.797094 -24.468514 24.534483 13.321834 28.111307 7.027198 11.837280 -8.256906 2.547167 -18.066721 1.498569 0.202261 -2.015393 0.000000 0.000000 0.000000 -2.060363 -25.007845 0.915880 -10.742811 -20.013872 -7.233393 24.765050 1.219558 -11.554371 -19.271456 -3.323994 13.830034 -1.070778 -0.749087 -1.026551 0.000000 0.000000 0.000000 -0.773817 -27.085971 0.765751 4.170359 -2.196265 0.615659 0.551242 -0.755870 0.187562 1.037137 -0.349907 0.248165 0.000000 0.000000 0.000000 0.784033 -0.870132 0.236386 -2.122821 1.551327 3.270072 17.734619 23.994661 -12.757151 0.000000 0.000000 0.000000 1.272749 -0.838030 0.233861 -0.602314 2.383164 3.751478 -1.510047 -0.016085 -0.120760 -53.727836 -2.483538 -48.826697 -9.035324 -86.688256 -8.599561 0.000000 0.000000 0.000000 2.107737 -0.519811 0.072815 -1.071694 -10.730926 10.218115 0.847883 1.953309 0.115510 -64.520788 64.707723 79.940261 -18.343197 86.937393 18.310023 0.000000 0.000000 0.000000 
0.289827 32.393890 0.149944 0.000000 0.000000 0.000000 -1.475891 -26.182188 0.812331 -24.392067 24.515405 13.321529 28.046543 7.086736 11.832747 -8.252455 2.618232 -18.094684 1.491929 0.201704 -2.005623 0.000000 0.000000 0.000000 -2.045390 -25.098027 0.934822 -10.756661 -19.968073 -7.233704 24.748726 1.228335 -11.511851 -19.306728 -3.330134 13.758543 -0.999792 -0.747573 -1.019779 0.000000 0.000000 0.000000 -0.738894 -27.135778 0.801381 4.122928 -2.218121 0.666897 0.539209 -0.772590 0.209124 1.038452 -0.350179 0.249697 0.000000 0.000000 0.000000 0.769553 -0.891346 0.257096 -2.059298 1.579147 3.205625 17.779729 24.007895 -12.825592 0.000000 0.000000 0.000000 1.264256 -0.858730 0.254185 -0.591453 2.381614 3.666566 -1.504996 0.025659 -0.102560 -53.806461 -2.502123 -48.755458 -8.521229 -86.516087 -8.070863 0.000000 0.000000 0.000000 2.102214 -0.536401 0.091215 -1.077237 -10.635446 10.002584 0.847498 1.972359 0.128954 -64.809022 64.698864 80.270924 -17.428659 86.740814 17.377835 0.000000 0.000000 0.000000 
